<svg width="36" height="36" viewBox="0 0 36 36" fill="none" xmlns="http://www.w3.org/2000/svg">
<circle cx="17.5" cy="17.5" r="17.5" fill="#014B8B"/>
<path d="M17.6 0C7.8804 0 0 7.8804 0 17.6C0 26.4235 6.50027 33.7099 14.9688 34.9829V22.264H10.6143V17.6381H14.9688V14.5596C14.9688 9.46293 17.4519 7.22627 21.6876 7.22627C23.716 7.22627 24.7896 7.37733 25.2971 7.4448V11.4825H22.4077C20.6096 11.4825 19.9819 13.1883 19.9819 15.1096V17.6381H25.2516L24.5373 22.264H19.9819V35.0196C28.5721 33.8551 35.2 26.51 35.2 17.6C35.2 7.8804 27.3196 0 17.6 0Z" fill="white"/>
</svg>
