<svg width="37" height="37" viewBox="0 0 37 37" fill="none" xmlns="http://www.w3.org/2000/svg">
<circle cx="18.5" cy="18.5" r="18.5" fill="white"/>
<path d="M14.9569 11C12.2235 11 10 13.1124 10 15.7076V22.431C10 25.0255 12.2256 27.136 14.9597 27.136H22.043C24.7765 27.136 27 25.0235 27 22.4283V15.705C27 13.1105 24.7744 11 22.0403 11H14.9569ZM23.4583 13.6893C23.8493 13.6893 24.1667 13.9905 24.1667 14.3617C24.1667 14.7328 23.8493 15.034 23.4583 15.034C23.0673 15.034 22.75 14.7328 22.75 14.3617C22.75 13.9905 23.0673 13.6893 23.4583 13.6893ZM18.5 15.034C20.8439 15.034 22.75 16.8432 22.75 19.068C22.75 21.2927 20.8439 23.102 18.5 23.102C16.1561 23.102 14.25 21.2927 14.25 19.068C14.25 16.8432 16.1561 15.034 18.5 15.034ZM18.5 16.3787C17.7486 16.3787 17.0279 16.662 16.4965 17.1663C15.9652 17.6707 15.6667 18.3547 15.6667 19.068C15.6667 19.7812 15.9652 20.4653 16.4965 20.9696C17.0279 21.474 17.7486 21.7573 18.5 21.7573C19.2514 21.7573 19.9721 21.474 20.5035 20.9696C21.0348 20.4653 21.3333 19.7812 21.3333 19.068C21.3333 18.3547 21.0348 17.6707 20.5035 17.1663C19.9721 16.662 19.2514 16.3787 18.5 16.3787V16.3787Z" fill="#2172DD"/>
</svg>
