<svg width="130" height="57" viewBox="0 0 130 57" fill="none" xmlns="http://www.w3.org/2000/svg">
<g clip-path="url(#clip0_276_5730)">
<path d="M124.955 5.92013C124.762 6.58268 124.633 7.20247 124.397 7.77953C123.496 10.1519 122.616 12.5242 121.628 14.8538C120.834 16.7345 122.057 17.4826 123.539 17.2475C124.998 17.0124 126.222 16.3071 127.295 15.3453C127.767 14.9606 128.218 14.7897 128.798 14.7897C129.163 14.7897 129.549 14.7897 130.021 14.7897C129.807 15.1316 129.657 15.4522 129.442 15.73C128.089 17.4826 126.265 18.5512 124.204 19.2351C122.916 19.6625 121.585 19.8763 120.211 19.6625C118.601 19.4061 117.571 18.4871 117.206 16.9269C117.185 16.82 117.142 16.7132 117.099 16.5636C116.455 17.0765 115.918 17.6322 115.274 18.0169C114.373 18.5726 113.449 19.1496 112.441 19.4488C110.208 20.1541 108.426 18.8504 108.362 16.4994C108.276 13.5287 109.736 11.3701 112.033 9.70304C112.355 9.46794 112.505 9.25422 112.333 8.84814C110.122 9.40382 107.911 8.97638 105.7 8.91226C105.314 8.89089 105.142 8.99775 105.013 9.36108C103.682 12.7165 102.673 16.1575 102.051 19.7053C102.029 19.8763 101.836 20.1541 101.686 20.1755C100.591 20.3465 99.4964 20.4747 98.4016 20.6243C98.3586 20.6243 98.2942 20.6029 98.2084 20.5816C98.8953 17.9314 99.5822 15.2812 100.291 12.631C100.269 12.6097 100.226 12.5883 100.205 12.5669C100.054 12.6952 99.9042 12.8234 99.7754 12.9303C97.6073 14.8751 95.5036 16.9055 93.2711 18.7649C91.0386 20.6243 88.4412 21.8853 85.6506 22.676C84.0836 23.1249 82.6453 22.8684 81.4432 21.7357C80.9065 21.2227 80.4343 20.6457 79.8761 20.0472C79.7044 20.1969 79.5112 20.3678 79.318 20.5388C78.0086 21.6929 76.6777 22.8043 75.0677 23.5523C74.2949 23.9156 73.4363 24.1935 72.5991 24.3217C71.2896 24.5354 70.2807 23.9156 69.6582 22.7615C69.1645 21.8425 68.9927 20.8594 68.9283 19.8549C68.7995 17.6108 69.1859 15.4094 69.7655 13.2081C69.2289 13.1012 68.821 13.144 68.4131 13.6142C65.7084 16.8628 63.6262 20.4106 62.4884 24.4927C62.4455 24.6637 62.2523 24.8774 62.102 24.8988C60.8785 25.1766 59.6334 25.4331 58.3025 25.7109C58.3669 25.4117 58.4313 25.1552 58.4957 24.9201C59.0324 22.9111 59.6334 20.9021 60.0842 18.8718C60.4277 17.3116 60.4062 15.7087 59.9983 13.9989C59.5261 14.2767 59.0753 14.5118 58.6674 14.811C57.7444 15.5163 57.1004 16.4353 56.5208 17.4398C55.3187 19.5771 54.5888 21.928 53.8375 24.2362C53.6014 24.9629 53.3867 25.6895 53.1291 26.4162C53.0862 26.5658 52.9359 26.7368 52.8071 26.7582C51.5836 26.9291 50.3385 27.0574 49.0505 27.207C49.7804 23.7019 50.4888 20.2182 51.2401 16.5849C49.1579 18.1879 46.8395 18.4443 44.5211 18.7008C44.1347 18.7435 44.1347 18.9786 44.1133 19.2565C43.9201 21.0517 43.6195 22.8256 42.9326 24.5354C42.2886 26.1384 41.3871 27.5703 40.0561 28.6817C37.6519 30.7334 34.7325 30.9044 32.0707 29.1732C31.9633 29.1091 31.856 29.045 31.7272 28.9381C31.2335 29.5793 30.7398 30.1991 30.246 30.8189C29.3015 31.9944 28.1638 32.9561 26.6612 33.2553C24.9653 33.5759 23.291 33.4049 21.681 32.7852C18.1176 31.4173 16.0997 28.7244 15.3269 25.1125C15.0479 23.8515 15.1552 22.5051 15.0908 21.2013C15.1338 20.5388 15.4557 20.0045 15.9065 19.5129C17.4736 17.739 19.0406 15.9438 20.6506 14.1699C24.1496 10.2801 27.6915 6.43307 30.8256 2.22272C30.8471 2.20135 30.8686 2.17998 30.9544 2.11586C32.178 3.05624 33.4016 4.018 34.6681 5.00112C34.4105 5.23622 34.1958 5.44994 33.9812 5.64229C29.3015 9.98088 24.6433 14.3195 19.9637 18.6367C19.6846 18.8931 19.5558 19.1069 19.6202 19.4702C19.9851 21.8853 20.4574 24.2362 21.5522 26.4589C22.4538 28.2542 23.7203 29.6862 25.6308 30.4769C26.747 30.9471 27.713 30.7548 28.6146 30.0281C29.0869 29.6434 29.4947 29.1946 29.924 28.7885C30.246 28.4893 30.5251 28.126 30.9115 27.8909C31.4052 27.5917 31.4482 27.3352 31.3408 26.7582C30.7183 23.9584 31.0832 21.2868 32.7361 18.8931C34.1958 16.7773 36.2995 15.8369 38.8326 15.73C39.6053 15.7087 40.3996 15.6018 41.1724 15.5377C41.8593 15.4736 42.396 15.1744 42.6321 14.5546C42.997 13.5928 43.7483 13.6569 44.5641 13.721C44.5641 15.0247 44.5641 16.3071 44.5641 17.6963C45.1222 17.6108 45.6588 17.5681 46.174 17.4398C48.6641 16.8414 50.8537 15.73 52.1417 13.4432C52.6783 12.5028 53.2579 12.0967 54.2668 12.054C55.0182 12.0326 55.7695 11.883 56.6067 11.7762C56.2417 13.2722 55.9197 14.7042 55.5763 16.1147C56.0056 16.243 56.2847 16.1147 56.5423 15.7941C57.2936 14.811 58.0234 13.8493 58.7962 12.9089C59.569 11.9685 60.535 11.3273 61.7156 10.9426C63.3686 10.387 65.0644 11.712 64.6351 13.6997C64.4419 14.6187 64.2272 15.5163 64.0125 16.4353C64.5492 16.5636 64.8927 16.4139 65.2361 15.9865C66.288 14.6187 67.3398 13.2722 68.499 11.9899C69.143 11.306 69.9372 10.7075 70.753 10.2373C71.8692 9.59618 72.9855 9.8099 73.9085 10.7289C74.1017 10.9426 74.2734 11.2632 74.2949 11.5411C74.4666 13.1654 74.1017 14.7469 73.8226 16.3285C73.6724 17.2261 73.5007 18.1451 73.3719 19.0427C73.3289 19.3847 73.3289 19.748 73.3504 20.1114C73.4148 21.2868 74.252 21.7357 75.2824 21.1372C76.7206 20.3037 78.1588 19.4274 79.5971 18.5726C79.0819 15.73 80.6704 13.6997 82.2804 11.712C83.3322 10.4297 84.6202 9.38245 86.037 8.50619C86.9171 7.97188 87.8616 7.73678 88.892 7.73678C89.9653 7.73678 90.7596 8.20697 91.3606 9.06187C92.4554 10.6648 92.2407 13.144 90.8454 14.4904C90.0727 15.2385 89.2784 15.9438 88.4197 16.5636C87.325 17.3757 86.0585 17.7818 84.6846 17.8031C84.3626 17.8031 84.2338 17.91 84.1909 18.2092C84.148 18.4871 84.0621 18.7649 84.0621 19.0427C84.0192 19.8549 84.427 20.3678 85.2213 20.4961C86.4663 20.6884 87.647 20.3251 88.7203 19.748C92.9491 17.4184 96.5769 14.3836 99.2817 10.3656C99.432 10.1305 99.4749 9.8099 99.6037 9.46794C98.5948 9.46794 97.7147 9.46794 96.7487 9.46794C96.7916 8.78403 96.8131 8.05737 96.856 7.28796C97.0277 7.28796 97.1995 7.26659 97.3712 7.26659C98.6377 7.28796 99.9042 7.26659 101.171 7.33071C101.664 7.35208 101.836 7.1811 101.944 6.73228C102.459 4.72328 103.017 2.73566 103.532 0.726659C103.618 0.36333 103.79 0.235096 104.133 0.213723C105.185 0.192351 106.28 0.0854893 107.439 0C106.795 2.58605 106.172 5.10799 105.55 7.67267C105.765 7.69404 105.915 7.71541 106.065 7.73678C108.405 7.77953 110.766 7.90776 113.106 7.86502C114.093 7.84364 115.059 7.52306 116.025 7.33071C117.55 7.01012 119.095 6.98875 120.641 7.15973C120.855 7.1811 121.177 7.11699 121.285 6.96738C122.272 5.7919 123.603 5.96288 124.955 5.92013ZM40.6572 16.5849C40.4211 16.7559 40.2708 16.8414 40.142 16.9483C37.6304 18.8718 36.2781 21.4578 35.999 24.5568C35.9131 25.5827 36.0634 26.6727 36.2566 27.6985C36.3854 28.3825 36.8791 28.5962 37.5231 28.2542C38.0598 27.9764 38.5964 27.613 39.0472 27.207C40.8289 25.4758 41.9237 23.36 42.396 20.9235C42.5677 20.0686 42.5892 19.1924 42.6965 18.2733C41.9881 18.2733 41.43 18.2733 40.8504 18.2733C40.7431 17.7177 40.7001 17.1834 40.6572 16.5849ZM112.569 15.7514C112.526 16.8628 112.784 17.0551 113.492 16.7345C113.922 16.5422 114.33 16.2857 114.695 15.9865C116.669 14.3836 118.279 12.4601 119.589 10.3015C119.761 10.0236 119.889 9.74578 119.997 9.44657C120.297 8.67717 120.061 8.37795 119.245 8.59168C118.623 8.76265 117.979 8.99775 117.442 9.33971C115.553 10.5366 114.093 12.1609 113.085 14.1699C112.827 14.7469 112.677 15.4094 112.569 15.7514ZM84.3411 15.9651C84.4485 16.0079 84.4699 16.0292 84.5129 16.0506C84.5558 16.0506 84.6202 16.0506 84.6631 16.0292C86.4448 15.3881 88.0119 14.4049 89.0423 12.7807C89.2569 12.4387 89.3428 11.9899 89.3428 11.5838C89.3213 10.7717 88.6773 10.3656 87.926 10.6862C87.5182 10.8785 87.1318 11.1564 86.8098 11.4769C85.7365 12.5456 85.0066 13.8279 84.4914 15.2385C84.4055 15.4736 84.3841 15.7514 84.3411 15.9651Z" fill="white"/>
<path d="M17.8814 3.56921C17.817 3.84705 17.7741 4.03941 17.7312 4.21038C13.3091 21.2014 8.86559 38.171 4.46499 55.162C4.3362 55.6749 4.0786 55.8246 3.60634 55.9528C2.38276 56.252 1.18065 56.6367 0 57C0 56.9787 0.0214663 56.8504 0.0429326 56.7008C2.53303 46.036 5.08752 35.3926 7.49174 24.7064C8.88705 18.4657 10.0462 12.1823 11.2913 5.92017C11.3771 5.55684 11.4845 5.34312 11.9353 5.25763C13.9531 4.95842 15.9495 4.55234 17.8814 3.56921Z" fill="white"/>
<path d="M129.935 24.7705C102.845 28.9167 75.9261 33.8965 49.6084 41.4409C50.4671 40.0945 50.6602 39.0472 50.0377 36.6321C76.3984 30.9257 102.974 26.6085 129.935 24.7705Z" fill="white"/>
<path d="M11.3129 53.5163C11.0982 50.9089 10.8621 48.4083 10.6474 45.9078C10.5616 44.9033 10.583 44.8819 11.549 44.5613C12.4506 44.2621 13.3307 43.9629 14.2323 43.685C15.0909 43.4286 15.9281 43.4286 16.5507 44.2407C17.0444 44.9033 16.98 45.9078 16.4004 46.784C16.336 46.8909 16.2716 46.9764 16.1643 47.126C16.7653 47.2756 17.259 47.5748 17.4522 48.1519C17.6884 48.8358 17.6454 49.5197 17.3664 50.1822C17.0014 51.0371 16.3789 51.6569 15.5203 51.9989C14.1679 52.5118 12.7726 52.982 11.3129 53.5163ZM12.6223 51.6997C13.5239 51.3791 14.3611 51.1226 15.1768 50.7593C15.4988 50.6097 15.8637 50.2891 15.9711 49.9685C16.0999 49.5838 16.0999 49.0495 15.9281 48.6648C15.7349 48.216 15.1983 48.3228 14.7689 48.4511C14.082 48.6648 13.3736 48.8785 12.7082 49.135C12.5794 49.1777 12.4506 49.4128 12.4506 49.5411C12.4721 50.225 12.5579 50.9089 12.6223 51.6997ZM12.3003 47.9168C13.1804 47.5962 13.9962 47.297 14.8119 46.955C15.0265 46.8481 15.3056 46.613 15.3485 46.3993C15.4344 46.0146 15.4559 45.5444 15.2841 45.2025C15.1983 45.0315 14.6401 44.9887 14.3396 45.0529C13.6956 45.2025 13.0516 45.4162 12.4291 45.6513C12.3003 45.694 12.1715 45.9291 12.1715 46.0574C12.1715 46.6558 12.2359 47.2328 12.3003 47.9168Z" fill="white"/>
<path d="M21.8309 49.7121C21.7665 47.0833 21.7021 44.5186 21.6377 41.8898C23.033 41.5051 24.4069 41.0563 25.8022 40.7357C27.5195 40.351 28.142 41.7616 27.7771 43.1294C27.5624 43.9415 26.9613 44.4758 26.3388 44.8605C27.1331 45.7796 27.9273 46.6986 28.7645 47.6817C28.2279 47.8313 27.7985 48.0023 27.3477 48.0878C27.2189 48.1091 27.0257 48.0023 26.9399 47.874C26.4462 47.297 26.0168 46.6986 25.5231 46.1429C25.0079 45.5658 23.7414 45.4803 23.1618 46.0147C23.0759 46.1001 23.0545 46.2925 23.0545 46.4421C23.0759 47.2115 23.0545 48.0023 23.1403 48.7717C23.1833 49.2205 23.0115 49.4128 22.6037 49.477C22.389 49.5411 22.1744 49.6266 21.8309 49.7121ZM23.0115 44.8392C23.9346 44.54 24.7503 44.3049 25.5446 44.0057C25.8451 43.8988 26.1242 43.6423 26.3174 43.3859C26.5964 43.0439 26.7467 42.5523 26.4032 42.2317C26.1886 42.018 25.7163 41.9753 25.3943 42.018C24.6859 42.1463 23.999 42.3814 23.3121 42.6165C23.1833 42.6592 23.0545 42.8515 23.033 42.9584C22.9901 43.5568 23.0115 44.1339 23.0115 44.8392Z" fill="white"/>
<path d="M35.935 43.45C36.0423 42.1249 36.1496 40.8853 36.257 39.6671C36.3428 38.7481 36.3428 38.7481 37.4161 38.7053C37.2444 40.928 37.0727 43.1294 36.901 45.3307C35.8706 45.6727 35.8706 45.6727 35.3339 44.8392C34.6685 43.8133 34.003 42.8088 33.2517 41.6333C33.1444 42.8516 33.0585 43.8988 32.9726 44.946C32.9512 45.0956 32.9512 45.2239 32.9512 45.3735C32.8868 46.3352 32.8224 46.378 31.7705 46.4421C31.8134 45.6941 31.8778 44.9674 31.9208 44.2194C32.0281 42.8729 32.1354 41.5478 32.2428 40.2014C32.2642 39.9235 32.3072 39.7098 32.6292 39.6884C32.9726 39.6671 33.2946 39.3679 33.5951 39.8808C34.2177 40.928 34.9046 41.9325 35.57 42.9584C35.6774 43.0866 35.7847 43.2363 35.935 43.45Z" fill="white"/>
<path d="M45.6805 40.0517C45.6161 41.2485 45.0795 42.4454 43.8988 43.2789C43.6842 43.4285 43.4481 43.5568 43.1905 43.6422C41.4946 44.262 40.271 43.3858 40.3354 41.5691C40.3998 39.8166 41.559 38.2564 43.0831 37.829C44.6502 37.4229 45.702 38.235 45.6805 40.0517ZM44.6287 40.2227C44.6502 38.8335 43.8344 38.3419 42.7611 38.9617C41.7951 39.5174 41.4946 40.4364 41.3873 41.4623C41.3444 41.9538 41.3658 42.4454 41.8595 42.7232C42.3533 43.0224 42.8685 42.8728 43.3193 42.595C44.2638 41.9966 44.5643 41.0776 44.6287 40.2227Z" fill="white"/>
</g>
<defs>
<clipPath id="clip0_276_5730">
<rect width="130" height="57" fill="white"/>
</clipPath>
</defs>
</svg>
