<svg width="84" height="24" viewBox="0 0 84 24" fill="none" xmlns="http://www.w3.org/2000/svg">
<path d="M83.9645 10.1294C77.0456 10.1294 77.0456 1.80811 70.1267 1.80811C63.2078 1.80811 63.2078 10.1294 56.2889 10.1294C49.37 10.1294 49.37 1.80811 42.4511 1.80811C35.5322 1.80811 35.5322 10.1294 28.6133 10.1294C21.6944 10.1294 21.6944 1.80811 14.772 1.80811C7.84614 1.80811 7.84614 10.1294 0.927246 10.1294" stroke="#FFCA0F" stroke-width="3" stroke-miterlimit="10"/>
<path d="M83.9117 21.7099C76.9928 21.7099 76.9928 13.3887 70.0739 13.3887C63.1551 13.3887 63.1551 21.7099 56.2362 21.7099C49.3173 21.7099 49.3173 13.3887 42.3984 13.3887C35.4795 13.3887 35.4795 21.7099 28.5606 21.7099C21.6417 21.7099 21.6417 13.3887 14.7193 13.3887C7.79691 13.3887 7.7934 21.7099 0.874512 21.7099" stroke="#FFCA0F" stroke-width="3" stroke-miterlimit="10"/>
</svg>
