<svg width="37" height="37" viewBox="0 0 37 37" fill="none" xmlns="http://www.w3.org/2000/svg">
<circle cx="18.5" cy="18.5" r="18.5" fill="white"/>
<path d="M18.5004 10.8C15.5702 10.8 11.767 11.5342 11.767 11.5342L11.7574 11.5451C10.4229 11.7585 9.40039 12.9053 9.40039 14.3V18.5V18.5014V22.7V22.7014C9.40169 23.3674 9.6404 24.0112 10.0736 24.5171C10.5069 25.0231 11.1063 25.358 11.7643 25.4617L11.767 25.4658C11.767 25.4658 15.5702 26.2014 18.5004 26.2014C21.4306 26.2014 25.2338 25.4658 25.2338 25.4658L25.2352 25.4644C25.8938 25.3609 26.4939 25.0257 26.9275 24.5192C27.3611 24.0127 27.5997 23.3681 27.6004 22.7014V22.7V18.5014V18.5V14.3C27.5994 13.6337 27.3609 12.9896 26.9276 12.4834C26.4943 11.9772 25.8947 11.6421 25.2365 11.5383L25.2338 11.5342C25.2338 11.5342 21.4306 10.8 18.5004 10.8ZM16.4004 15.2789L22.0004 18.5L16.4004 21.7211V15.2789Z" fill="#014B8B"/>
</svg>
