<?xml version="1.0" encoding="utf-8"?>
<!-- Generator: Adobe Illustrator 23.0.1, SVG Export Plug-In . SVG Version: 6.00 Build 0)  -->
<svg version="1.1" xmlns="http://www.w3.org/2000/svg" xmlns:xlink="http://www.w3.org/1999/xlink" x="0px" y="0px"
	 viewBox="0 0 283.5 283.5" style="enable-background:new 0 0 283.5 283.5;" xml:space="preserve">
<style type="text/css">
	.st0{display:none;}
	.st1{display:inline;fill:#4D4D4D;}
	.st2{fill:#0485A2;}
	.st3{display:inline;}
	.st4{fill:#989A9E;fill-opacity:0.9765;}
	.st5{fill:#5A87C0;}
	.st6{fill:#0060A9;}
</style>
<g id="Vrstva_2" class="st0">
	<path class="st1" d="M613.3,677h-865c-6.6,0-12-5.4-12-12v-856c0-6.6,5.4-12,12-12h865c6.6,0,12,5.4,12,12v856
		C625.3,671.6,619.9,677,613.3,677z"/>
</g>
<g id="Vrstva_1">
	<g>
		<g>
			<path class="st2" d="M283.5,208.3c-0.7-1.3-1.4-2.5-2.4-4.2c-4.2,4.2-8.9,7-14.3,1.6c-3.1-3.1-3.6-9-1.2-13.3
				c3.6-6.5,9.2-6,15.6-3.2c0-3.9,0.4-7.2-2.3-9.7c-2.5-2.3-5.5-1.3-8.4-0.6c-1,0.2-2.2,0-3.3,0c0.9-0.8,1.6-1.9,2.6-2.3
				c5.5-1.9,10.2-1.1,13.7,4C283.5,189.8,283.5,199,283.5,208.3z M281.1,196.1c0-5-1.7-6.5-6.8-6.4c-4.4,0.1-7.2,3.5-7.2,8.8
				c0,4.3,2.5,7.4,5.9,7.5C277.3,206,281.1,201.4,281.1,196.1z"/>
			<path class="st2" d="M0,203.3c1.2-1.4,2.6-2.6,3.7-4.1c4.8-6.5,9.6-13.1,14.6-20.1c-5.7-1.3-11.3,0.6-16.5-1.9
				c6.6-1.2,13.3-0.9,20.8-0.9c-2.2,6.1-6.4,10-9.4,14.6c-3.1,4.7-6.5,9.1-9.8,13.7c0.1,0.4,0.2,0.8,0.3,1.1c6.4,0,12.7,0,19.1,0
				c0,0.5,0,1,0.1,1.6c-1.2,0.2-2.4,0.6-3.7,0.6c-6.4,0.2-12.7,0.3-19.1,0.4C0,206.6,0,204.9,0,203.3z"/>
			<path class="st2" d="M135.3,161.8c-25.3-1.3-38.9-18.5-30.8-40.6c7-19.1,21.8-29.7,41.3-33.9c5.6-1.2,11.4-1.3,17.2-1.9
				c0.7-10.8-9.3-21.6-21.2-21.8c-5.7-0.1-11.3,1.7-17,2.7c-1.3,0.2-2.6,0.9-4.7,1.7c0.8-1.1,1-1.8,1.5-2.1c6.3-4.8,13.2-8.6,21-9.6
				c10-1.3,17.9,3.2,24.1,10.8c4.3,5.2,6.7,11.4,7.9,18c0.4,2.4,1.4,3.6,3.6,4.6c3.3,1.5,6.5,3.4,9.7,5.2c-0.2,0.4-0.3,0.7-0.5,1.1
				c-2.6-0.5-5.2-0.9-7.7-1.5c-3-0.8-4,0-4.3,3.3c-1.7,22.6-12.4,39.5-32.6,50.1c-3.8,2-8.2,2.8-12.4,4.1c-0.2-0.4-0.4-0.9-0.5-1.3
				c1-0.6,2.1-1.3,3.1-1.9c18.6-11.9,29.8-28.2,31.1-50.7c0.3-4.5,0.1-4.6-4.3-4.1c-18.7,2.1-33,11.5-43.4,26.8
				c-7.9,11.7-6,23.4,5,32.3C125.6,156.3,130.5,158.7,135.3,161.8z"/>
			<path class="st2" d="M67.5,205.7c1.6-0.8,3.2-1.5,4.7-2.5c4.7-3.3,7.3-7.8,8.4-13.4c0.2-0.9,1.1-1.7,1.6-2.6
				c0.5,1,1.3,1.9,1.3,2.9c0.1,4.7,0.1,9.4,0.1,14.1c0,2.9-1.5,4.3-4.4,4.4c-3.7,0-7.3,0.1-11,0c-6.4-0.2-10.4-7.5-7-12.8
				c3-4.7,7.2-7.7,12.7-8.8c2.4-0.5,3.3,0.2,2.9,2.8c-0.9,5.2-3.2,9.6-7.4,12.9c-0.9,0.7-1.7,1.4-2.6,2.1
				C67.1,205,67.3,205.3,67.5,205.7z"/>
			<path class="st2" d="M117.5,175.1c1.1,1.4,1.9,2.4,2.9,3.6c4.1-1.9,8.5-6,12.8,0c2.1-1,4.1-2.2,6.1-2.8c3.9-1.1,7.5,1.5,7.6,5.6
				c0.2,7.9,0.1,15.8,0,23.7c0,0.8-0.9,1.6-1.4,2.4c-0.4-0.8-1.2-1.7-1.2-2.5c-0.1-7.2-0.1-14.4,0-21.6c0-2.7-0.4-5.1-3.7-5.4
				c-3.1-0.3-7,2.8-7,5.7c-0.1,6.8,0,13.7-0.1,20.5c0,1.1-0.8,2.2-1.2,3.3c-0.5-1.1-1.5-2.2-1.5-3.3c-0.1-6.8,0-13.7-0.1-20.5
				c0-2.5,0.1-5.3-3.4-5.6c-3.1-0.3-7.1,3.1-7.1,6.1c-0.1,6.4,0,12.7,0,19.1c0,0.8,0.2,1.7-0.1,2.5c-0.2,0.7-0.8,1.2-1.3,1.8
				c-0.5-0.5-1-1-1.5-1.6c-0.2-0.2-0.1-0.7-0.1-1c-0.2-9.3-0.4-18.6-0.6-27.9C116.8,176.6,117.1,176.3,117.5,175.1z"/>
			<path class="st2" d="M64.8,177.5c7.2-1.4,10.7,0.5,11.6,6.3c-1.8,0.3-3.6,0.5-5.4,0.9c-5.9,1.2-10.3,4.5-13,10
				c-2.4,4.9-1.5,8.4,2.7,12.2c0.3,0.3,0.5,0.7,0.8,1.1c-4.8,1.6-7.1,0.1-7.2-4.7c0-7.7,0-15.3,0-23c0-4.4,0.8-5.2,5.1-5.2
				c1.1,0,2.1,0,3.2,0C64.2,175,66.3,174.4,64.8,177.5z"/>
			<path class="st2" d="M167.5,192.5c-2.7,0-5.4,0.1-8.1,0c-2.1-0.1-2.6,0.8-2.4,2.8c1.2,9.4,7.4,13,16.2,9.3
				c1.2-0.5,2.6-0.3,3.9-0.4c-1,0.9-1.8,2.2-3,2.7c-13.2,5.5-20.2-3.9-19.8-13.6c0.2-4,1-8.2,2.6-11.8c1.7-4.1,5.7-5.9,10.2-5.7
				c4.6,0.2,7.6,2.8,9.4,6.9c3.7,8.1,2.6,9.9-6.2,9.9C169.4,192.5,168.5,192.5,167.5,192.5z M166.1,190c2.4,0,4.7,0.1,7.1-0.1
				c0.8-0.1,2.1-0.8,2.3-1.4c0.7-2.6-2.7-8.2-5.6-9.7c-2.9-1.5-6.7-1-9.1,1.7c-1.4,1.6-2.5,3.7-3.4,5.7c-1.2,2.5-0.6,4.1,2.6,3.8
				C162.1,189.9,164.1,190,166.1,190z"/>
			<path class="st2" d="M242.7,191.7c3-3.3,5.3-6.1,7.9-8.5c2.5-2.3,3.1-6.7,8.2-6.2c-3.8,4.5-7.6,9-11.6,13.8
				c4.7,5.3,9.4,10.6,14.1,16c-0.2,0.4-0.4,0.7-0.6,1.1c-1.2-0.6-2.8-0.9-3.6-1.8c-3.2-3.5-6.1-7.2-9.2-10.8
				c-0.7-0.9-1.6-1.7-3.2-3.5c-0.9,2.5-1.9,4.2-2.2,6.1c-0.3,2.4,0,5-0.1,7.4c-0.1,0.8-0.9,1.6-1.4,2.3c-0.4-0.8-1.3-1.6-1.3-2.5
				c-0.1-12.9-0.1-25.7,0-38.6c0-0.9,1-1.8,1.5-2.6c0.4,1,1.2,1.9,1.2,2.9c0.1,7.3,0,14.6,0,22C242.3,189.4,242.5,190.1,242.7,191.7
				z"/>
			<path class="st2" d="M187.4,184c1.2-1.6,1.6-2.5,2.4-3.1c2.3-1.7,4.5-3.8,7.1-4.9c3.5-1.4,6.9,0.5,8.2,4.1c0.5,1.4,0.9,3,0.9,4.5
				c0.1,6.7,0.1,13.4,0,20.2c0,0.9-0.8,1.9-1.3,2.8c-0.5-0.9-1.3-1.8-1.3-2.8c-0.1-5.9,0-11.8-0.1-17.7c0-1.5,0-3.1-0.3-4.6
				c-0.7-3.9-3.3-5.3-7-3.9c-4.7,1.8-6.5,5.9-7.6,10.4c-0.4,1.7-0.5,3.5-0.5,5.3c-0.1,3.2,0.1,6.4-0.1,9.5c-0.1,1.3-0.9,2.5-1.4,3.7
				c-0.4-1.3-1.1-2.6-1.3-3.9c-0.2-1.6,0-3.3-0.1-4.9c-0.2-6.7-0.5-13.4-0.7-20.1c0-0.8,0.5-1.6,0.7-2.4c0.6,0.7,1.5,1.3,1.7,2.1
				C187.2,179.8,187.1,181.4,187.4,184z"/>
			<path class="st2" d="M37.2,175.2c2.2,0.8,4.5,1.4,6.6,2.4c0.8,0.4,1.3,1.6,2,2.4c-1,0-2.1,0.1-3-0.1c-1.6-0.4-3-1.3-4.6-1.7
				c-3.3-0.7-6.6,1.1-7.5,3.9c-1.1,3.4,0.9,5.4,3.6,6.8c2.3,1.2,4.8,2,7.1,3.2c5.1,2.5,7.2,6.9,5.3,11.1c-1.9,4.4-7.4,6.8-12.1,5
				c-2.5-0.9-4.9-2.3-7.2-3.6c-0.5-0.3-0.4-1.5-0.5-2.3c0.7,0.1,1.5,0,2.1,0.3c2.3,1.1,4.5,2.6,6.9,3.3c3.7,1.1,7.1-0.5,8.2-3.6
				c1.2-3.1-0.3-6.2-3.9-8c-2.3-1.1-4.8-2-7.1-3.2c-4.5-2.3-6.3-5.6-5.2-9.3C28.7,178.1,32.7,175.5,37.2,175.2z"/>
			<path class="st2" d="M215.9,184.8c0.8,0.8,1.9,2.7,3.5,3.7c2.3,1.4,4.9,2.2,7.4,3.4c5,2.5,7,6.7,5.3,10.9
				c-1.8,4.4-7.2,6.8-12.1,5.1c-2.4-0.8-4.7-2.1-6.9-3.4c-0.6-0.3-0.6-1.5-0.9-2.3c0.8,0.1,1.7-0.1,2.4,0.2c2.5,1,4.8,2.6,7.3,3.3
				c3.5,0.9,6.7-1,7.7-4c0.9-2.8-0.6-5.9-3.8-7.5c-2.4-1.2-5-2.1-7.4-3.3c-4.1-2.1-5.8-5.2-5.1-8.8c0.7-3.4,4.6-6.7,8.7-6.4
				c2.7,0.2,5.4,1.3,8,2.3c0.5,0.2,0.7,1.4,1,2.2c-0.7,0-1.5,0.3-2.2,0c-1.9-0.6-3.7-1.7-5.6-2C219.5,177.6,216,180.3,215.9,184.8z"
				/>
			<path class="st2" d="M95.8,183.8c2.3-2.5,3.9-4.8,6-6.4c5-3.8,10.6-1.2,11.3,5c0.1,0.8-0.7,1.7-1,2.5c-0.6-0.6-1.4-1.2-1.6-1.9
				c-1.8-5.7-4.7-6.5-9-2.4c-3.1,3-4.8,6.7-5,11c-0.2,4.3-0.1,8.7-0.3,13.1c0,0.9-0.9,1.8-1.3,2.8c-0.5-0.9-1.3-1.8-1.4-2.7
				c-0.4-8.8-0.6-17.6-0.8-26.5c0-0.7,0.7-1.5,1-2.2c0.5,0.6,1.4,1.2,1.6,1.9C95.6,179.7,95.6,181.5,95.8,183.8z"/>
			<path class="st2" d="M28.7,164c2,1.4,4.1,2.8,5.9,4.3c1.8,1.6,3.3,1.8,5.2,0c1.2-1.2,2.7-2.2,4.2-3.2c0.6-0.4,1.5-0.5,2.2-0.7
				c0.2,0.3,0.4,0.7,0.6,1c-2.9,2.6-5.8,5.1-8.8,7.7c-0.3,0.2-1,0.3-1.3,0.1c-3.1-2.5-6.2-5.1-9.2-7.7C27.9,165,28.3,164.5,28.7,164
				z"/>
			<path class="st2" d="M82.3,185.9c-2-3.4-4.1-6.8-6.7-11.1c2.6,0.4,6.1,0.2,6.7,1.3c1.3,2.7,1.3,6,1.8,9.1
				C83.5,185.4,82.9,185.7,82.3,185.9z"/>
			<path class="st2" d="M162.8,171.9c2.9-2.3,5.7-4.6,8.7-6.8c0.3-0.2,1.3,0.1,1.8,0.5c0.3,0.3,0.4,1.1,0.3,1.6
				C173,168.4,164.9,172.9,162.8,171.9z"/>
			<path class="st2" d="M271,172.5c3.6-3,6.5-5.4,9.4-7.7c0.2-0.2,1.1,0.1,1.5,0.5c0.4,0.3,0.6,1,0.6,1.5
				C282.2,168.1,273.9,172.8,271,172.5z"/>
		</g>
	</g>
</g>
<g id="Vrstva_5" class="st0">
	
		<image style="display:inline;overflow:visible;" width="1670" height="1548" xlink:href="7AECDCDD.jpg"  transform="matrix(0.1695 0 0 0.1695 0 10.5188)">
	</image>
</g>
<g id="Vrstva_3" class="st0">
	<g id="layer1" transform="translate(48.206307,-382.79831)" class="st3">
		<g id="g3544" transform="matrix(0.54824702,0,0,0.54853816,-21.777343,398.54975)">
			<path id="path3525" class="st4" d="M104.4,299.2c-3.6-1-8.8-3.5-9.5-4.7c-0.4-0.6-0.2-1.2,0.8-2.6c0.7-1,1.5-1.9,1.8-1.9
				c0.3,0,1.9,1,3.5,2.1s4.1,2.7,5.5,3.4c2.7,1.4,9.9,3.7,11.3,3.7c0.7,0,0.8,0.1,0.2,0.5C116.8,300.5,108,300.2,104.4,299.2z
				 M120.1,297.4c-0.8-0.2-2.1-0.6-2.9-0.9c-0.8-0.3-1.5-0.4-1.5-0.2c0,0.1-0.3,0-0.6-0.2c-0.3-0.3-1.1-0.6-1.7-0.6
				s-1.4-0.3-1.6-0.5c-0.3-0.2-1.6-0.7-3-1.3c-5-2-9.6-5.3-9.6-6.9c0-0.8,6.6-8.3,7.4-8.3c0.2,0,1.6,1,3.1,2.3
				c5.9,5,12.9,7.5,24,8.5l3.3,0.3l-2.6,2.3C128.6,296.8,124.1,298.6,120.1,297.4L120.1,297.4z M88.4,289.6
				c-3.4-3.5-3.5-3.7-3.5-5.9c0-4.6,3.9-13.8,8.1-19.1c5-6.4,13.2-10.9,22.9-12.6c3.5-0.6,4.3-0.6,4.8-0.1
				c1.5,1.5,2.1,11.8,0.8,13.6c-0.4,0.6-2,1.7-3.6,2.5c-9.9,5-18.9,13.4-23.3,21.6C92.4,293.7,92.4,293.7,88.4,289.6L88.4,289.6z
				 M126.1,286c-4.7-1-9.3-2.9-13-5.4c-4.1-2.7-4.6-3.3-3.8-4.3c0.8-1,5.2-3.9,8.2-5.5c3.6-1.9,5-1.9,8.2-0.1c5,2.9,11.5,4.9,15.9,5
				c1.2,0,2.3,0.2,2.5,0.5c0.5,0.8-1.1,4.8-3,7.8l-1.8,2.8l-5,0C131.6,286.7,127.9,286.4,126.1,286L126.1,286z M81.4,278.9
				c-4.1-9-1.3-19.9,7.2-27.7c4.3-4,11.8-7.8,19.9-10c4.6-1.3,5.5-1.2,7.4,1c1.4,1.5,4,5.9,4,6.7c0,0.1-1,0.4-2.2,0.5
				c-10.6,1.5-20.5,6.6-26.2,13.5c-3.5,4.3-8,14.1-8,17.6C83.5,282,82.5,281.3,81.4,278.9L81.4,278.9z M139.5,272.9
				c-0.1-0.3-0.3-3.9-0.4-7.9c-0.3-10.9-2.2-16.9-7.8-24.8l-2.5-3.5l2.2,1.3c6.2,3.8,12.1,12.3,14.1,20.2c0.8,3.1,1.1,13.6,0.5,14.7
				C145,273.7,139.7,273.6,139.5,272.9z M133.7,271.9c-2.8-1-7.5-3.5-8.6-4.5c-1-0.9-1-1.4-1-6.1c0-6.2-0.9-10.4-2.9-14.8
				c-2.7-5.6-6.4-9.9-11.2-12.7l-1.8-1l3.5-0.1c3.9-0.2,8.7,0.5,11,1.6c0.8,0.4,2.7,2.1,4.1,3.8c7.8,9.2,10.9,17.7,10.6,29.1
				C137.1,272.9,137,273.1,133.7,271.9z M81,255.7c0.6-2.5,3.8-8.3,6.4-11.4c3-3.6,6.1-6,10.8-8.4c4.9-2.4,7.1-2.4,10.8,0
				c1.5,1,2.5,1.9,2.3,1.9c-13,3.9-15,4.7-19.6,7.8c-3.6,2.5-7.3,6-9.4,9.2C80.9,256.8,80.7,256.9,81,255.7z"/>
			<path id="path3523" class="st5" d="M194.3,398.2c-10.9-0.9-22.5-3-33.7-6.2l-5.5-1.6l50,0l50,0l-5.3,1.6
				C233.3,397,210.6,399.5,194.3,398.2L194.3,398.2z M127.6,378.9c-1.2-0.2-2.6-0.6-3.2-0.9c-2.8-1.5-12.4-7-12.4-7.2
				c0-0.1,41.8-0.2,92.9-0.2c74.3,0,92.8,0.1,92.3,0.6c-0.7,0.7-7.2,4.5-10.6,6.1c-1.3,0.7-3.7,1.4-5.3,1.6
				C277.9,379.4,130.7,379.4,127.6,378.9L127.6,378.9z M96.5,358.3c-0.8-0.4-3.2-2.2-5.2-3.9l-3.8-3.1l117.4,0l117.4,0l-2.1,1.8
				c-2.8,2.4-6.3,4.8-8.2,5.4c-1.2,0.4-28.8,0.5-107.8,0.5C103.9,359.1,97.9,359.1,96.5,358.3L96.5,358.3z M77.7,338.9
				c-0.8-0.3-3.8-3.5-6.1-6.6c-0.6-0.8,5.8-0.8,133.5-0.8h134.1l-1.7,2.2c-1,1.2-2.5,3-3.4,3.9l-1.6,1.7l-126.9,0
				C135.8,339.3,78.2,339.1,77.7,338.9L77.7,338.9z M63.7,319.2c-1.4-0.5-2.4-1.8-4-4.9l-1.6-3.1h146.7c100.6,0,146.7,0.1,146.7,0.5
				c0,0.6-2.2,4.9-3.3,6.5l-0.9,1.3l-141.5,0C128,319.4,64.1,319.3,63.7,319.2z M54.5,299.7c-0.9-0.2-1.9-0.5-2.2-0.7
				c-0.7-0.4-3.3-5.9-3.3-6.9c0-0.6,2-0.7,16.4-0.7c18.3,0,17.8-0.1,20.6,3.2c0.9,1,2.7,2.7,4,3.7l2.4,1.8l-18.2-0.1
				C64.3,300.1,55.4,299.9,54.5,299.7z M136.4,297.3c1.8-1.6,3.8-3.5,4.4-4.4l1.2-1.6h109.6c97.8,0,109.6,0.1,109.6,0.7
				c0,1.4-2.7,6.6-3.8,7.2c-0.9,0.5-20.4,0.6-112.7,0.7l-111.6,0.1L136.4,297.3z M173.2,279.9c-23,0-24.3,0-24-0.8
				c0.2-0.4,0.6-2,0.9-3.5c0.3-1.5,1.6-4.5,1.9-4.8c81.9,0.3,82.5,1.4,215.4-0.4c0.9,0.5,0.2,2.1-1,5.7l-1.2,3.7
				C300.6,280.7,229.2,280,173.2,279.9L173.2,279.9z M44.9,279.3c-0.8-1-2.1-5.7-1.8-6.5c0.3-0.7,2-0.7,16-0.7h15.7l0,1.3
				c0,0.7,0.3,2.5,0.6,3.9l0.6,2.6H60.7C49,279.9,45.3,279.8,44.9,279.3z"/>
			<path id="path3519" class="st6" d="M213.1,286.6c-10.9-2-19.6-8.6-24.4-18.4c-2.7-5.5-3.9-10.2-3.9-16c0-6,1-10.2,3.8-16
				c2.1-4.3,2.8-5.3,6.5-9c3.3-3.3,5.1-4.6,8.4-6.3c10.3-5.3,20.9-5.5,30.8-0.6c9.3,4.6,15.8,12.5,18.8,22.7c1.4,4.9,1.4,14,0,18.6
				c-1.9,6-4.4,10.4-8.5,14.9C237,284.7,224.6,288.7,213.1,286.6L213.1,286.6z M266.3,267.5c11.1-7.4,14.7-11.6,14.1-16.8
				c-0.3-2.7-2.9-10.8-6.6-20.1c-9.5-24.4-22.8-45.6-31.1-49.5c-9.8-4.6-25.5,3.8-66.5,35.6c-6.6,5.1-9.2,6.2-14.2,5.9
				c-5.1-0.3-8.3-2-10.4-5.4c-1.5-2.4-1.5-2.7-1.4-6.2c0.1-3.1,0.5-4.3,1.8-7.1c2.9-6,8.3-12,17.9-19.9c7.2-5.9,10.5-8.8,19.8-17.3
				c12.7-11.8,26.8-23.4,34.7-28.8c8.6-5.8,13.9-7.9,19.4-7.5c5.7,0.4,10.4,3.5,20.5,13.7c7.5,7.6,13.7,14.8,23,27
				c13.7,17.9,23.8,33.4,35.4,54c7.1,12.7,11.8,20.4,20.7,33.9c4.1,6.3,7.6,11.6,7.6,11.8c0.1,0.3-17.3,0.6-45.5,0.7l-45.6,0.3
				L266.3,267.5L266.3,267.5z M40.1,256.7c-0.9-0.7-1.9-6.4-2.7-16.3c-0.7-8.3-0.3-24.9,0.7-32.3c3.5-25.2,11.7-46.9,26.3-69.3
				c18.9-28.9,44.6-50.5,74.8-62.9c14.5-6,31.8-10.3,49.7-12.5c6.4-0.8,29.6-0.8,35.5,0c32,4.4,56.6,14.5,82.9,34.2
				c15.6,11.7,27.7,24.5,38.3,40.7c5.4,8.2,13,23.4,16.5,32.6c5.1,13.7,9,30.1,10.4,43.6c1.3,12.2,0.2,37.2-1.8,41.4
				c-0.5,1-0.9,1.2-3.1,1.3c-3.8,0.2-3.8,0.1-3-5.2c1.9-12.5,2.1-30.3,0.5-42.1c-3.3-25-12.4-48.5-27.5-70.7
				c-15.5-23-35.4-40.3-61.2-53.2c-23-11.5-46.4-16.8-74.4-16.7c-32.4,0.1-62.4,9.9-90.1,29.6c-10.3,7.4-21.5,17.6-30.1,27.6
				c-19.7,22.9-32.1,50.9-36.9,83.6c-1.3,8.6-1.2,31.3,0.2,40c0.6,3.5,0.9,6.6,0.8,6.8C45.5,257.5,40.9,257.4,40.1,256.7L40.1,256.7
				z"/>
		</g>
	</g>
</g>
<g id="Vrstva_4" class="st0">
	
		<image style="display:inline;overflow:visible;" width="538" height="222" xlink:href="7AECDCE2.jpg"  transform="matrix(1.0211 0 0 1.0211 -132.9354 28.3936)">
	</image>
</g>
</svg>
