<?xml version="1.0" encoding="utf-8"?>
<!-- Generator: Adobe Illustrator 23.0.1, SVG Export Plug-In . SVG Version: 6.00 Build 0)  -->
<svg version="1.1" xmlns="http://www.w3.org/2000/svg" xmlns:xlink="http://www.w3.org/1999/xlink" x="0px" y="0px"
	 viewBox="0 0 283.5 283.5" style="enable-background:new 0 0 283.5 283.5;" xml:space="preserve">
<style type="text/css">
	.st0{display:none;}
	.st1{display:inline;fill:#4D4D4D;}
	.st2{display:inline;}
	.st3{fill:#0485A2;}
	.st4{fill:#989A9E;fill-opacity:0.9765;}
	.st5{fill:#5A87C0;}
	.st6{fill:#0060A9;}
</style>
<g id="Vrstva_2" class="st0">
	<path class="st1" d="M613.3,677h-865c-6.6,0-12-5.4-12-12v-856c0-6.6,5.4-12,12-12h865c6.6,0,12,5.4,12,12v856
		C625.3,671.6,619.9,677,613.3,677z"/>
</g>
<g id="Vrstva_1" class="st0">
	<g class="st2">
		<g>
			<path class="st3" d="M283.5,208.3c-0.7-1.3-1.4-2.5-2.4-4.2c-4.2,4.2-8.9,7-14.3,1.6c-3.1-3.1-3.6-9-1.2-13.3
				c3.6-6.5,9.2-6,15.6-3.2c0-3.9,0.4-7.2-2.3-9.7c-2.5-2.3-5.5-1.3-8.4-0.6c-1,0.2-2.2,0-3.3,0c0.9-0.8,1.6-1.9,2.6-2.3
				c5.5-1.9,10.2-1.1,13.7,4C283.5,189.8,283.5,199,283.5,208.3z M281.1,196.1c0-5-1.7-6.5-6.8-6.4c-4.4,0.1-7.2,3.5-7.2,8.8
				c0,4.3,2.5,7.4,5.9,7.5C277.3,206,281.1,201.4,281.1,196.1z"/>
			<path class="st3" d="M0,203.3c1.2-1.4,2.6-2.6,3.7-4.1c4.8-6.5,9.6-13.1,14.6-20.1c-5.7-1.3-11.3,0.6-16.5-1.9
				c6.6-1.2,13.3-0.9,20.8-0.9c-2.2,6.1-6.4,10-9.4,14.6c-3.1,4.7-6.5,9.1-9.8,13.7c0.1,0.4,0.2,0.8,0.3,1.1c6.4,0,12.7,0,19.1,0
				c0,0.5,0,1,0.1,1.6c-1.2,0.2-2.4,0.6-3.7,0.6c-6.4,0.2-12.7,0.3-19.1,0.4C0,206.6,0,204.9,0,203.3z"/>
			<path class="st3" d="M135.3,161.8c-25.3-1.3-38.9-18.5-30.8-40.6c7-19.1,21.8-29.7,41.3-33.9c5.6-1.2,11.4-1.3,17.2-1.9
				c0.7-10.8-9.3-21.6-21.2-21.8c-5.7-0.1-11.3,1.7-17,2.7c-1.3,0.2-2.6,0.9-4.7,1.7c0.8-1.1,1-1.8,1.5-2.1c6.3-4.8,13.2-8.6,21-9.6
				c10-1.3,17.9,3.2,24.1,10.8c4.3,5.2,6.7,11.4,7.9,18c0.4,2.4,1.4,3.6,3.6,4.6c3.3,1.5,6.5,3.4,9.7,5.2c-0.2,0.4-0.3,0.7-0.5,1.1
				c-2.6-0.5-5.2-0.9-7.7-1.5c-3-0.8-4,0-4.3,3.3c-1.7,22.6-12.4,39.5-32.6,50.1c-3.8,2-8.2,2.8-12.4,4.1c-0.2-0.4-0.4-0.9-0.5-1.3
				c1-0.6,2.1-1.3,3.1-1.9c18.6-11.9,29.8-28.2,31.1-50.7c0.3-4.5,0.1-4.6-4.3-4.1c-18.7,2.1-33,11.5-43.4,26.8
				c-7.9,11.7-6,23.4,5,32.3C125.6,156.3,130.5,158.7,135.3,161.8z"/>
			<path class="st3" d="M67.5,205.7c1.6-0.8,3.2-1.5,4.7-2.5c4.7-3.3,7.3-7.8,8.4-13.4c0.2-0.9,1.1-1.7,1.6-2.6
				c0.5,1,1.3,1.9,1.3,2.9c0.1,4.7,0.1,9.4,0.1,14.1c0,2.9-1.5,4.3-4.4,4.4c-3.7,0-7.3,0.1-11,0c-6.4-0.2-10.4-7.5-7-12.8
				c3-4.7,7.2-7.7,12.7-8.8c2.4-0.5,3.3,0.2,2.9,2.8c-0.9,5.2-3.2,9.6-7.4,12.9c-0.9,0.7-1.7,1.4-2.6,2.1
				C67.1,205,67.3,205.3,67.5,205.7z"/>
			<path class="st3" d="M117.5,175.1c1.1,1.4,1.9,2.4,2.9,3.6c4.1-1.9,8.5-6,12.8,0c2.1-1,4.1-2.2,6.1-2.8c3.9-1.1,7.5,1.5,7.6,5.6
				c0.2,7.9,0.1,15.8,0,23.7c0,0.8-0.9,1.6-1.4,2.4c-0.4-0.8-1.2-1.7-1.2-2.5c-0.1-7.2-0.1-14.4,0-21.6c0-2.7-0.4-5.1-3.7-5.4
				c-3.1-0.3-7,2.8-7,5.7c-0.1,6.8,0,13.7-0.1,20.5c0,1.1-0.8,2.2-1.2,3.3c-0.5-1.1-1.5-2.2-1.5-3.3c-0.1-6.8,0-13.7-0.1-20.5
				c0-2.5,0.1-5.3-3.4-5.6c-3.1-0.3-7.1,3.1-7.1,6.1c-0.1,6.4,0,12.7,0,19.1c0,0.8,0.2,1.7-0.1,2.5c-0.2,0.7-0.8,1.2-1.3,1.8
				c-0.5-0.5-1-1-1.5-1.6c-0.2-0.2-0.1-0.7-0.1-1c-0.2-9.3-0.4-18.6-0.6-27.9C116.8,176.6,117.1,176.3,117.5,175.1z"/>
			<path class="st3" d="M64.8,177.5c7.2-1.4,10.7,0.5,11.6,6.3c-1.8,0.3-3.6,0.5-5.4,0.9c-5.9,1.2-10.3,4.5-13,10
				c-2.4,4.9-1.5,8.4,2.7,12.2c0.3,0.3,0.5,0.7,0.8,1.1c-4.8,1.6-7.1,0.1-7.2-4.7c0-7.7,0-15.3,0-23c0-4.4,0.8-5.2,5.1-5.2
				c1.1,0,2.1,0,3.2,0C64.2,175,66.3,174.4,64.8,177.5z"/>
			<path class="st3" d="M167.5,192.5c-2.7,0-5.4,0.1-8.1,0c-2.1-0.1-2.6,0.8-2.4,2.8c1.2,9.4,7.4,13,16.2,9.3
				c1.2-0.5,2.6-0.3,3.9-0.4c-1,0.9-1.8,2.2-3,2.7c-13.2,5.5-20.2-3.9-19.8-13.6c0.2-4,1-8.2,2.6-11.8c1.7-4.1,5.7-5.9,10.2-5.7
				c4.6,0.2,7.6,2.8,9.4,6.9c3.7,8.1,2.6,9.9-6.2,9.9C169.4,192.5,168.5,192.5,167.5,192.5z M166.1,190c2.4,0,4.7,0.1,7.1-0.1
				c0.8-0.1,2.1-0.8,2.3-1.4c0.7-2.6-2.7-8.2-5.6-9.7c-2.9-1.5-6.7-1-9.1,1.7c-1.4,1.6-2.5,3.7-3.4,5.7c-1.2,2.5-0.6,4.1,2.6,3.8
				C162.1,189.9,164.1,190,166.1,190z"/>
			<path class="st3" d="M242.7,191.7c3-3.3,5.3-6.1,7.9-8.5c2.5-2.3,3.1-6.7,8.2-6.2c-3.8,4.5-7.6,9-11.6,13.8
				c4.7,5.3,9.4,10.6,14.1,16c-0.2,0.4-0.4,0.7-0.6,1.1c-1.2-0.6-2.8-0.9-3.6-1.8c-3.2-3.5-6.1-7.2-9.2-10.8
				c-0.7-0.9-1.6-1.7-3.2-3.5c-0.9,2.5-1.9,4.2-2.2,6.1c-0.3,2.4,0,5-0.1,7.4c-0.1,0.8-0.9,1.6-1.4,2.3c-0.4-0.8-1.3-1.6-1.3-2.5
				c-0.1-12.9-0.1-25.7,0-38.6c0-0.9,1-1.8,1.5-2.6c0.4,1,1.2,1.9,1.2,2.9c0.1,7.3,0,14.6,0,22C242.3,189.4,242.5,190.1,242.7,191.7
				z"/>
			<path class="st3" d="M187.4,184c1.2-1.6,1.6-2.5,2.4-3.1c2.3-1.7,4.5-3.8,7.1-4.9c3.5-1.4,6.9,0.5,8.2,4.1c0.5,1.4,0.9,3,0.9,4.5
				c0.1,6.7,0.1,13.4,0,20.2c0,0.9-0.8,1.9-1.3,2.8c-0.5-0.9-1.3-1.8-1.3-2.8c-0.1-5.9,0-11.8-0.1-17.7c0-1.5,0-3.1-0.3-4.6
				c-0.7-3.9-3.3-5.3-7-3.9c-4.7,1.8-6.5,5.9-7.6,10.4c-0.4,1.7-0.5,3.5-0.5,5.3c-0.1,3.2,0.1,6.4-0.1,9.5c-0.1,1.3-0.9,2.5-1.4,3.7
				c-0.4-1.3-1.1-2.6-1.3-3.9c-0.2-1.6,0-3.3-0.1-4.9c-0.2-6.7-0.5-13.4-0.7-20.1c0-0.8,0.5-1.6,0.7-2.4c0.6,0.7,1.5,1.3,1.7,2.1
				C187.2,179.8,187.1,181.4,187.4,184z"/>
			<path class="st3" d="M37.2,175.2c2.2,0.8,4.5,1.4,6.6,2.4c0.8,0.4,1.3,1.6,2,2.4c-1,0-2.1,0.1-3-0.1c-1.6-0.4-3-1.3-4.6-1.7
				c-3.3-0.7-6.6,1.1-7.5,3.9c-1.1,3.4,0.9,5.4,3.6,6.8c2.3,1.2,4.8,2,7.1,3.2c5.1,2.5,7.2,6.9,5.3,11.1c-1.9,4.4-7.4,6.8-12.1,5
				c-2.5-0.9-4.9-2.3-7.2-3.6c-0.5-0.3-0.4-1.5-0.5-2.3c0.7,0.1,1.5,0,2.1,0.3c2.3,1.1,4.5,2.6,6.9,3.3c3.7,1.1,7.1-0.5,8.2-3.6
				c1.2-3.1-0.3-6.2-3.9-8c-2.3-1.1-4.8-2-7.1-3.2c-4.5-2.3-6.3-5.6-5.2-9.3C28.7,178.1,32.7,175.5,37.2,175.2z"/>
			<path class="st3" d="M215.9,184.8c0.8,0.8,1.9,2.7,3.5,3.7c2.3,1.4,4.9,2.2,7.4,3.4c5,2.5,7,6.7,5.3,10.9
				c-1.8,4.4-7.2,6.8-12.1,5.1c-2.4-0.8-4.7-2.1-6.9-3.4c-0.6-0.3-0.6-1.5-0.9-2.3c0.8,0.1,1.7-0.1,2.4,0.2c2.5,1,4.8,2.6,7.3,3.3
				c3.5,0.9,6.7-1,7.7-4c0.9-2.8-0.6-5.9-3.8-7.5c-2.4-1.2-5-2.1-7.4-3.3c-4.1-2.1-5.8-5.2-5.1-8.8c0.7-3.4,4.6-6.7,8.7-6.4
				c2.7,0.2,5.4,1.3,8,2.3c0.5,0.2,0.7,1.4,1,2.2c-0.7,0-1.5,0.3-2.2,0c-1.9-0.6-3.7-1.7-5.6-2C219.5,177.6,216,180.3,215.9,184.8z"
				/>
			<path class="st3" d="M95.8,183.8c2.3-2.5,3.9-4.8,6-6.4c5-3.8,10.6-1.2,11.3,5c0.1,0.8-0.7,1.7-1,2.5c-0.6-0.6-1.4-1.2-1.6-1.9
				c-1.8-5.7-4.7-6.5-9-2.4c-3.1,3-4.8,6.7-5,11c-0.2,4.3-0.1,8.7-0.3,13.1c0,0.9-0.9,1.8-1.3,2.8c-0.5-0.9-1.3-1.8-1.4-2.7
				c-0.4-8.8-0.6-17.6-0.8-26.5c0-0.7,0.7-1.5,1-2.2c0.5,0.6,1.4,1.2,1.6,1.9C95.6,179.7,95.6,181.5,95.8,183.8z"/>
			<path class="st3" d="M28.7,164c2,1.4,4.1,2.8,5.9,4.3c1.8,1.6,3.3,1.8,5.2,0c1.2-1.2,2.7-2.2,4.2-3.2c0.6-0.4,1.5-0.5,2.2-0.7
				c0.2,0.3,0.4,0.7,0.6,1c-2.9,2.6-5.8,5.1-8.8,7.7c-0.3,0.2-1,0.3-1.3,0.1c-3.1-2.5-6.2-5.1-9.2-7.7C27.9,165,28.3,164.5,28.7,164
				z"/>
			<path class="st3" d="M82.3,185.9c-2-3.4-4.1-6.8-6.7-11.1c2.6,0.4,6.1,0.2,6.7,1.3c1.3,2.7,1.3,6,1.8,9.1
				C83.5,185.4,82.9,185.7,82.3,185.9z"/>
			<path class="st3" d="M162.8,171.9c2.9-2.3,5.7-4.6,8.7-6.8c0.3-0.2,1.3,0.1,1.8,0.5c0.3,0.3,0.4,1.1,0.3,1.6
				C173,168.4,164.9,172.9,162.8,171.9z"/>
			<path class="st3" d="M271,172.5c3.6-3,6.5-5.4,9.4-7.7c0.2-0.2,1.1,0.1,1.5,0.5c0.4,0.3,0.6,1,0.6,1.5
				C282.2,168.1,273.9,172.8,271,172.5z"/>
		</g>
	</g>
</g>
<g id="Vrstva_5" class="st0">
	
		<image style="display:inline;overflow:visible;" width="1670" height="1548" xlink:href="22D2DABB.jpg"  transform="matrix(0.1695 0 0 0.1695 0 10.5188)">
	</image>
</g>
<g id="Vrstva_3">
	<g id="layer1" transform="translate(48.206307,-382.79831)">
		<g id="g3544" transform="matrix(0.54824702,0,0,0.54853816,-21.777343,398.54975)">
			<path id="path3525" class="st4" d="M54.3,332.5c-5.5-1.4-13.4-5.3-14.5-7.1c-0.6-0.9-0.3-1.8,1.2-4c1-1.6,2.3-2.9,2.8-2.9
				c0.5,0,2.9,1.5,5.4,3.3c2.5,1.8,6.2,4.1,8.4,5.2c4.2,2.1,15,5.6,17.3,5.6c1.1,0,1.2,0.1,0.3,0.7
				C73.3,334.4,59.8,333.9,54.3,332.5z M78.3,329.7c-1.2-0.3-3.1-0.9-4.4-1.3c-1.3-0.4-2.3-0.5-2.3-0.3s-0.4,0.1-0.9-0.4
				c-0.5-0.4-1.7-0.8-2.6-1c-1-0.1-2.1-0.4-2.5-0.7c-0.4-0.3-2.5-1.1-4.6-2c-7.6-3-14.7-8.1-14.7-10.5c0-1.3,10.1-12.7,11.2-12.7
				c0.3,0,2.4,1.6,4.7,3.5c9,7.7,19.7,11.5,36.5,13l5.1,0.5l-4,3.5C91.3,328.7,84.3,331.4,78.3,329.7L78.3,329.7z M30,317.8
				c-5.2-5.4-5.4-5.6-5.4-9c0-7,5.9-21,12.3-29.1c7.7-9.8,20.1-16.6,34.9-19.2c5.3-0.9,6.5-0.9,7.3-0.1c2.3,2.3,3.2,17.9,1.2,20.7
				c-0.6,0.9-3.1,2.6-5.4,3.8c-15,7.6-28.8,20.4-35.5,32.9C36,324.1,36.1,324.1,30,317.8L30,317.8z M87.4,312.4
				c-7.1-1.5-14.2-4.5-19.8-8.2c-6.2-4.1-7-5-5.7-6.5c1.3-1.5,7.9-5.9,12.6-8.4c5.5-2.9,7.6-2.9,12.4-0.1c7.6,4.4,17.5,7.5,24.2,7.5
				c1.8,0,3.5,0.3,3.7,0.7c0.7,1.2-1.7,7.3-4.6,11.9l-2.7,4.3l-7.6-0.1C95.7,313.4,90.1,312.9,87.4,312.4L87.4,312.4z M19.4,301.4
				c-6.2-13.7-1.9-30.3,10.9-42.2c6.5-6,18-11.8,30.3-15.3c7-2,8.4-1.8,11.3,1.5c2.1,2.3,6.1,9,6.1,10.1c0,0.2-1.5,0.5-3.3,0.8
				c-16.1,2.2-31.2,10-39.9,20.6c-5.4,6.5-12.2,21.5-12.2,26.8C22.5,306.2,21.1,305.1,19.4,301.4L19.4,301.4z M107.8,292.3
				c-0.2-0.5-0.4-5.9-0.6-12.1c-0.5-16.7-3.4-25.8-12-37.7l-3.8-5.3l3.3,2.1c9.4,5.8,18.4,18.7,21.5,30.8c1.2,4.7,1.7,20.7,0.7,22.4
				C116.2,293.5,108.1,293.4,107.8,292.3z M99,290.8c-4.2-1.6-11.5-5.4-13.1-6.9c-1.5-1.3-1.6-2.1-1.6-9.2c0-9.4-1.3-15.9-4.5-22.6
				c-4.1-8.6-9.8-15.1-17-19.4l-2.7-1.6l5.3-0.2c6-0.2,13.3,0.8,16.7,2.5c1.3,0.6,4.1,3.2,6.3,5.7c11.9,14,16.6,26.9,16.2,44.3
				C104.2,292.4,104,292.7,99,290.8z M18.7,266.2c0.8-3.7,5.8-12.6,9.8-17.4c4.5-5.5,9.3-9.2,16.5-12.8c7.4-3.7,10.8-3.7,16.4,0
				c2.3,1.5,3.8,2.9,3.5,3C45,244.9,42.1,246,35,250.8c-5.6,3.8-11.1,9.1-14.4,13.9C18.5,267.8,18.3,268,18.7,266.2z"/>
			<path id="path3523" class="st5" d="M191.2,483.3c-16.6-1.3-34.3-4.6-51.3-9.4l-8.3-2.4l76.1,0l76.1,0l-8.1,2.4
				C250.7,481.4,216.1,485.3,191.2,483.3L191.2,483.3z M89.8,453.8c-1.8-0.3-4-0.9-4.9-1.4c-4.3-2.2-18.9-10.7-18.9-10.9
				c0-0.2,63.7-0.3,141.5-0.3c113.2,0,141.3,0.2,140.6,0.9c-1.1,1.1-11,6.8-16.1,9.3c-2,1-5.7,2.1-8.1,2.4
				C318.7,454.6,94.4,454.6,89.8,453.8L89.8,453.8z M42.4,422.4c-1.2-0.7-4.8-3.4-8-6l-5.8-4.7l178.8,0l178.8,0l-3.2,2.8
				c-4.2,3.7-9.6,7.3-12.6,8.3c-1.8,0.6-43.8,0.8-164.2,0.8C53.6,423.7,44.5,423.6,42.4,422.4L42.4,422.4z M13.7,392.8
				c-1.2-0.5-5.8-5.4-9.4-10c-0.9-1.2,8.9-1.2,203.4-1.2H412l-2.7,3.3c-1.5,1.8-3.8,4.5-5.1,6l-2.5,2.6l-193.3,0
				C102.1,393.4,14.5,393.1,13.7,392.8L13.7,392.8z M-7.6,362.8c-2.1-0.8-3.7-2.7-6-7.4l-2.4-4.7h223.4c153.3,0,223.4,0.2,223.4,0.7
				c0,1-3.3,7.5-5,10l-1.4,1.9l-215.5-0.1C90.4,363.2-7.1,363-7.6,362.8z M-21.7,333.2c-1.4-0.3-2.9-0.7-3.4-1.1
				c-1.1-0.7-5-8.9-5-10.5c0-0.9,3.1-1.1,24.9-1.1c27.8,0,27.1-0.1,31.4,4.9c1.3,1.6,4.1,4.1,6.2,5.6l3.7,2.8l-27.7-0.1
				C-6.8,333.7-20.3,333.5-21.7,333.2z M103.1,329.6c2.7-2.4,5.8-5.4,6.8-6.7l1.8-2.4h166.9c149,0,166.9,0.1,166.9,1.1
				c0,2.2-4.1,10.1-5.7,11c-1.4,0.8-31.1,1-171.7,1.1l-170,0.2L103.1,329.6z M159.1,303c-35.1,0-37.1-0.1-36.6-1.2
				c0.3-0.7,0.9-3.1,1.4-5.3c0.5-2.2,2.4-6.8,2.9-7.3c124.8,0.5,125.6,2.1,328.1-0.6c1.4,0.7,0.4,3.2-1.4,8.8l-1.8,5.6
				C353.3,304.2,244.5,303.1,159.1,303L159.1,303z M-36.2,302.1c-1.2-1.5-3.2-8.7-2.7-9.9c0.4-1,3-1.1,24.3-1.1H9.2l0,1.9
				c0,1.1,0.4,3.7,1,6l0.9,4h-23.3C-30,303-35.7,302.8-36.2,302.1z"/>
			<path id="path3519" class="st6" d="M220,313.2c-16.6-3.1-29.8-13.1-37.2-28.1c-4.2-8.4-5.9-15.6-5.9-24.4
				c0-9.2,1.5-15.5,5.8-24.4c3.1-6.5,4.3-8.1,9.9-13.7c5.1-5,7.7-7,12.8-9.6c15.7-8.1,31.9-8.4,46.9-0.9c14.2,7,24.1,19,28.6,34.6
				c2.1,7.4,2.1,21.4,0,28.3c-2.8,9.1-6.7,15.9-12.9,22.7C256.4,310.4,237.5,316.5,220,313.2L220,313.2z M301,284.2
				c16.9-11.3,22.4-17.7,21.6-25.6c-0.4-4.1-4.4-16.4-10-30.7c-14.5-37.2-34.8-69.5-47.4-75.4c-14.9-7-38.8,5.8-101.3,54.3
				c-10.1,7.8-14,9.4-21.6,9c-7.7-0.4-12.7-3-15.8-8.3c-2.2-3.7-2.3-4.1-2.1-9.5c0.2-4.7,0.7-6.6,2.8-10.9
				c4.4-9.1,12.6-18.3,27.2-30.3c10.9-9,16-13.4,30.1-26.4c19.4-17.9,40.8-35.7,52.9-43.8c13.1-8.9,21.2-12,29.5-11.5
				c8.7,0.6,15.9,5.3,31.3,20.8c11.5,11.5,20.9,22.6,35,41.1c20.9,27.3,36.3,50.9,53.9,82.3c10.8,19.3,18,31.1,31.6,51.6
				c6.3,9.5,11.5,17.6,11.6,18c0.1,0.4-26.3,0.8-69.3,1.1l-69.5,0.5L301,284.2L301,284.2z M-43.6,267.7c-1.4-1.1-2.8-9.7-4.1-24.9
				c-1-12.6-0.4-37.9,1.1-49.3c5.3-38.4,17.9-71.5,40.1-105.5c28.7-44,67.9-76.9,113.9-95.9c22.1-9.1,48.4-15.7,75.7-19.1
				c9.8-1.2,45.1-1.2,54,0c48.8,6.7,86.3,22.1,126.3,52.1c23.8,17.9,42.1,37.3,58.4,62c8.2,12.4,19.9,35.6,25.1,49.7
				c7.7,20.9,13.7,45.9,15.8,66.4c2,18.6,0.3,56.6-2.7,63.1c-0.7,1.5-1.3,1.8-4.7,1.9c-5.8,0.3-5.8,0.2-4.6-8
				c2.8-19,3.2-46.1,0.8-64.1c-5.1-38.1-19-73.8-41.8-107.7c-23.7-35-53.9-61.3-93.2-81c-35-17.6-70.6-25.6-113.4-25.5
				c-49.4,0.1-95.1,15.1-137.3,45.1c-15.7,11.2-32.7,26.7-45.8,42c-30,34.9-48.8,77.6-56.3,127.3c-2,13.1-1.8,47.6,0.3,61
				c0.8,5.4,1.4,10,1.2,10.3C-35.3,269-42.3,268.7-43.6,267.7L-43.6,267.7z"/>
		</g>
	</g>
</g>
<g id="Vrstva_4" class="st0">
	
		<image style="display:inline;overflow:visible;" width="538" height="222" xlink:href="22D2DAB9.jpg"  transform="matrix(1.0211 0 0 1.0211 -132.9354 28.3936)">
	</image>
</g>
</svg>
